<svg id="icons" xmlns="http://www.w3.org/2000/svg" xmlns:xlink="http://www.w3.org/1999/xlink" viewBox="0 0 96 96"><defs><linearGradient id="linear-gradient" x1="93.42634" y1="78.73943" x2="50.43247" y2="16.60446" gradientUnits="userSpaceOnUse"><stop offset="0" stop-color="#fff" stop-opacity="0"/><stop offset="1" stop-color="#fff"/></linearGradient><linearGradient id="linear-gradient-2" x1="33.15755" y1="46.74027" x2="-8.51116" y2="100.4826" xlink:href="#linear-gradient"/><linearGradient id="linear-gradient-3" x1="62.71302" y1="46.14836" x2="6.7621" y2="6.83547" xlink:href="#linear-gradient"/><linearGradient id="linear-gradient-4" x1="74.34661" y1="51.60658" x2="79.42637" y2="67.17714" xlink:href="#linear-gradient"/><linearGradient id="linear-gradient-5" x1="69.90888" y1="44.04357" x2="83.38127" y2="54.86566" xlink:href="#linear-gradient"/><linearGradient id="linear-gradient-6" x1="16.34661" y1="61.60658" x2="21.42637" y2="77.17714" xlink:href="#linear-gradient"/><linearGradient id="linear-gradient-7" x1="11.90888" y1="54.04357" x2="25.38127" y2="64.86566" xlink:href="#linear-gradient"/><linearGradient id="linear-gradient-8" x1="41.34661" y1="29.60658" x2="46.42637" y2="45.17714" xlink:href="#linear-gradient"/><linearGradient id="linear-gradient-9" x1="36.90888" y1="22.04357" x2="50.38127" y2="32.86566" xlink:href="#linear-gradient"/></defs><polygon points="96 74 80 74 68 84 68 74 58 74 58 36 96 36 96 74" fill="url(#linear-gradient)"/><polygon points="0 84 16 84 28 94 28 84 38 84 38 46 0 46 0 84" fill="url(#linear-gradient-2)"/><rect x="25.00001" y="14" width="38" height="38" fill="url(#linear-gradient-3)"/><path d="M80,54l8,4v3a3,3,0,0,1-3,3H69a3,3,0,0,1-3-3V58l8-4Z" fill="url(#linear-gradient-4)"/><path d="M76,44h2a4,4,0,0,1,4,4v3a5,5,0,0,1-5,5h0a5,5,0,0,1-5-5V48a4,4,0,0,1,4-4Z" fill="url(#linear-gradient-5)"/><path d="M22,64l8,4v3a3,3,0,0,1-3,3H11a3,3,0,0,1-3-3V68l8-4Z" fill="url(#linear-gradient-6)"/><path d="M18,54h2a4,4,0,0,1,4,4v3a5,5,0,0,1-5,5h0a5,5,0,0,1-5-5V58a4,4,0,0,1,4-4Z" fill="url(#linear-gradient-7)"/><path d="M47,32l8,4v3a3,3,0,0,1-3,3H36a3,3,0,0,1-3-3V36l8-4Z" fill="url(#linear-gradient-8)"/><path d="M43,22h2a4,4,0,0,1,4,4v3a5,5,0,0,1-5,5h0a5,5,0,0,1-5-5V26A4,4,0,0,1,43,22Z" fill="url(#linear-gradient-9)"/><circle cx="44.00001" cy="94.00002" r="1" fill="none" stroke="#fff" stroke-linecap="round" stroke-linejoin="round" stroke-width="2" opacity="0.7"/><circle cx="52.00001" cy="94.00002" r="1" fill="none" stroke="#fff" stroke-linecap="round" stroke-linejoin="round" stroke-width="2" opacity="0.7"/><circle cx="60.00001" cy="94.00002" r="1" fill="none" stroke="#fff" stroke-linecap="round" stroke-linejoin="round" stroke-width="2" opacity="0.7"/></svg>