<svg width="124" height="91" viewBox="0 0 124 91" fill="none" xmlns="http://www.w3.org/2000/svg">
<path d="M97.381 19.806C93.8351 21.4049 90.0237 22.485 86.0244 22.9709C90.1066 20.4834 93.2423 16.5445 94.7184 11.8507C90.8974 14.1545 86.6658 15.8268 82.1614 16.7282C78.5548 12.8216 73.4158 10.3811 67.7283 10.3811C56.8084 10.3811 47.9543 19.3803 47.9543 30.4805C47.9543 32.0558 48.1292 33.5901 48.4666 35.0611C32.0326 34.223 17.4627 26.2207 7.70989 14.0599C6.0078 17.0285 5.03242 20.481 5.03242 24.1647C5.03242 31.1383 8.52335 37.2905 13.8291 40.8948C10.5878 40.7905 7.53881 39.8862 4.87291 38.3809C4.87066 38.4647 4.87066 38.5489 4.87066 38.6337C4.87066 48.372 11.6867 56.4953 20.7326 58.3431C19.0734 58.8026 17.3265 59.048 15.5232 59.048C14.249 59.048 13.0105 58.9216 11.8029 58.6875C14.3194 66.6726 21.6217 72.4838 30.2748 72.6455C23.5074 78.0368 14.9815 81.2503 5.71689 81.2503C4.12082 81.2503 2.54692 81.1548 1 80.9691C9.75092 86.6726 20.1447 90.0002 31.3114 90.0002C67.6822 90.0002 87.5719 59.3728 87.5719 32.8107C87.5719 31.9393 87.5526 31.0727 87.5146 30.2101C91.3775 27.3767 94.7297 23.837 97.3806 19.806H97.381Z" stroke="#2AA9E0" stroke-width="2"/>
<path d="M100.416 14.6281L104.122 12.8922L104.99 14.7451L106.843 13.8772L107.711 15.7301L109.564 14.8621L111.3 18.568L107.594 20.3039L106.726 18.451L104.873 19.3189L104.005 17.466L102.152 18.3339L104.756 23.8927L108.462 22.1568L109.33 24.0097L111.183 23.1418L112.051 24.9947L113.904 24.1267L116.507 29.6855L114.654 30.5534L115.522 32.4064L113.67 33.2743L114.537 35.1272L110.832 36.8631L111.7 38.7161L107.994 40.452L107.126 38.599L103.42 40.335L102.552 38.482L100.699 39.35L99.8311 37.4971L97.9782 38.365L96.2423 34.6592L99.9482 32.9233L100.816 34.7762L102.669 33.9082L103.537 35.7612L105.39 34.8932L102.786 29.3345L99.0802 31.0704L98.2122 29.2174L96.3593 30.0854L95.4914 28.2325L93.6385 29.1004L91.0346 23.5417L92.8875 22.6737L92.0196 20.8208L93.8725 19.9528L93.0045 18.0999L96.7104 16.364L95.8424 14.5111L99.5482 12.7752L100.416 14.6281ZM109.096 33.1573L110.949 32.2893L110.081 30.4364L111.934 29.5685L111.066 27.7156L109.213 28.5835L108.345 26.7306L106.492 27.5985L109.096 33.1573ZM98.4463 20.0699L96.5933 20.9378L97.4613 22.7907L95.6084 23.6587L96.4763 25.5116L98.3293 24.6436L99.1972 26.4966L101.05 25.6286L98.4463 20.0699Z" fill="#1DF259"/>
</svg>
