<svg id="icons" xmlns="http://www.w3.org/2000/svg" xmlns:xlink="http://www.w3.org/1999/xlink" viewBox="0 0 96 96"><defs><linearGradient id="linear-gradient" x1="10.93614" y1="41.76057" x2="332.11847" y2="95.82895" gradientUnits="userSpaceOnUse"><stop offset="0" stop-color="#fff" stop-opacity="0"/><stop offset="1" stop-color="#fff"/></linearGradient><linearGradient id="linear-gradient-2" x1="32.8148" y1="14.2922" x2="67.34043" y2="90.9315" xlink:href="#linear-gradient"/><linearGradient id="linear-gradient-3" x1="61.77229" y1="42.59973" x2="-1.68783" y2="67.48316" xlink:href="#linear-gradient"/><clipPath id="clip-path"><circle cx="48" cy="48" r="20" fill="none"/></clipPath><linearGradient id="linear-gradient-4" x1="42.44023" y1="76.38108" x2="68.05986" y2="42.36881" xlink:href="#linear-gradient"/><linearGradient id="linear-gradient-5" x1="39.24117" y1="35.40003" x2="52.84963" y2="39.97532" xlink:href="#linear-gradient"/></defs><circle cx="47.99999" cy="47.99996" r="48" fill="url(#linear-gradient)"/><path d="M48,18C21.49036,18,0,48,0,48S21.49036,78,48,78,96,48,96,48,74.5097,18,48,18Zm0,52A22,22,0,1,1,70,48,22,22,0,0,1,48,70Z" fill="url(#linear-gradient-2)"/><circle cx="48" cy="48" r="22" fill="url(#linear-gradient-3)"/><g clip-path="url(#clip-path)"><path d="M71,78H25V60l9.87868-9.87868a3,3,0,0,1,4.24264,0l3.60043,3.60043a3,3,0,0,0,4.38839-.15653l8.77972-10.13044a3,3,0,0,1,4.38839-.15653L71,54Z" fill="url(#linear-gradient-4)"/></g><circle cx="43.99997" cy="36.99998" r="5" fill="url(#linear-gradient-5)"/></svg>