<svg id="icons" xmlns="http://www.w3.org/2000/svg" xmlns:xlink="http://www.w3.org/1999/xlink" viewBox="0 0 96 96"><defs><linearGradient id="linear-gradient" y1="43" x2="96" y2="43" gradientUnits="userSpaceOnUse"><stop offset="0" stop-color="#fff" stop-opacity="0"/><stop offset="1" stop-color="#fff" stop-opacity="0.7"/></linearGradient><linearGradient id="linear-gradient-2" x1="0.5" y1="1893.25" y2="1893.25" gradientTransform="matrix(1, 0, 0, -1, 0, 1924)" xlink:href="#linear-gradient"/><linearGradient id="linear-gradient-3" y1="64.85934" y2="64.85934" xlink:href="#linear-gradient"/><linearGradient id="linear-gradient-4" x1="36" y1="49.07349" x2="36" y2="141.35174" gradientUnits="userSpaceOnUse"><stop offset="0" stop-color="#fff" stop-opacity="0"/><stop offset="1" stop-color="#fff"/></linearGradient><linearGradient id="linear-gradient-5" x1="14" y1="27.45257" x2="14" y2="127.77483" xlink:href="#linear-gradient-4"/><linearGradient id="linear-gradient-6" x1="80" y1="32.34064" x2="80" y2="240.03431" xlink:href="#linear-gradient-4"/><linearGradient id="linear-gradient-7" x1="58" y1="14.19173" x2="58" y2="117.39768" xlink:href="#linear-gradient-4"/></defs><polyline points="0.5 76.5 35 42 63 42 95.5 9.5" fill="none" stroke-linecap="round" stroke-miterlimit="10" stroke="url(#linear-gradient)"/><polyline points="95.5 16.5 95.5 9.5 88.5 9.5" fill="none" stroke="#fff" stroke-linecap="round" stroke-linejoin="round" opacity="0.7"/><polyline points="1 11 24 11 35 22 46 11 56 11 95.5 50.5" fill="none" stroke-linecap="round" stroke-miterlimit="10" stroke="url(#linear-gradient-2)"/><polyline points="95.5 43.5 95.5 50.5 88.5 50.5" fill="none" stroke="#fff" stroke-linecap="round" stroke-linejoin="round" opacity="0.7"/><polyline points="0.5 49.5 31 80 46 64 59 77 95.5 77" fill="none" stroke-linecap="round" stroke-miterlimit="10" stroke="url(#linear-gradient-3)"/><polyline points="90.5 82 95.5 77 90.5 72" fill="none" stroke="#fff" stroke-linecap="round" stroke-linejoin="round" opacity="0.7"/><rect x="26" width="20" height="93" fill="url(#linear-gradient-4)"/><rect x="4" width="20" height="93" fill="url(#linear-gradient-5)"/><rect x="70" width="20" height="93" fill="url(#linear-gradient-6)"/><rect x="48" width="20" height="93" fill="url(#linear-gradient-7)"/><line x1="0.5" y1="95.5" x2="95.5" y2="95.5" fill="none" stroke="#fff" stroke-linecap="round" stroke-miterlimit="10" opacity="0.7"/></svg>